<svg id="Layer_2" data-name="Layer 2" xmlns="http://www.w3.org/2000/svg" xmlns:xlink="http://www.w3.org/1999/xlink" viewBox="0 0 400 300"><defs><linearGradient id="linear-gradient" x1="40.73" y1="205.57" x2="48.96" y2="193.87" gradientUnits="userSpaceOnUse"><stop offset="0" stop-opacity="0"/><stop offset="0.99" stop-color="#005abf"/></linearGradient></defs><title>HA</title><path d="M382.8,172.78,182.47,287.4a26,26,0,0,1-25.85,0L15.91,206.8a8.3,8.3,0,0,1-.07-14.37L225.2,69.73a8.3,8.3,0,0,1,8.44,0l149.28,88.68A8.3,8.3,0,0,1,382.8,172.78Z" fill="#efddd8"/><path d="M246.4,133.15s-1.68,18,1.71,25.3,28.65,20.36,28.65,20.36,4.21-7,3.51-9.82-19.17-19.17-19.17-19.17v-19" fill="#f35f00"/><path d="M264.73,130.81a62.25,62.25,0,0,1-1.19,17.2,95.37,95.37,0,0,1-4.65,15.69l10.68,30.19s-5.3,4.46-8.69,4.38-12.77-25.58-15.44-30.33,6.18-37.13,6.18-37.13" fill="#f35f00"/><polyline points="245.14 102.08 212.12 112.64 214.64 121.94 247.54 112.01" fill="#a6e700"/><path d="M253.6,123.69q1.07-.07,2.13-.19c-2.17-9.28-8.73-29.71-10-.29A27.07,27.07,0,0,0,253.6,123.69Z" fill="#35406e"/><path d="M262.43,106.59a5.35,5.35,0,0,0-3.08-3.91,12.9,12.9,0,0,0-4.59-1.37,63.94,63.94,0,0,0-9.63.77c-4,4.11-2.32,13.19-1.57,18,.7,4.43,1.8,8.76,2.82,13.12,5.18,2.79,14.63-.07,18.33-1.5A123.66,123.66,0,0,0,262.43,106.59Z" fill="#a6e700"/><path d="M259.45,91.12A2.91,2.91,0,0,0,256,89.89a.56.56,0,0,0-.08-.16c-.68-.89-.93-1.78-2.06-2.21a6.17,6.17,0,0,0-3.24-.19A4,4,0,0,0,248,88.88a.49.49,0,0,0-.28-.1,4.35,4.35,0,0,0-4.56,4c-.1,2,1.24,4.3,3.25,4.63a7.25,7.25,0,0,0,3,.68,1.23,1.23,0,0,0,1-1.88l.16-.08.11.06a1,1,0,0,0,1.33.29l.18-.08a3.51,3.51,0,0,0,.75-.2l.27.12-.12.28a1.16,1.16,0,0,0,.4,1.35,1.81,1.81,0,0,0,.67.23A6.27,6.27,0,0,1,252,99.88c-1.16.45-.67,2,.33,2.17-.52.32-.55,2.58.05,2.31a11.77,11.77,0,0,0,6.47-7C259.35,95.9,260.34,92.5,259.45,91.12Z" fill="#2a343d"/><path d="M245.82,94.41c-.28-.08-1.2,9.44,2.64,10.45,4.84,1.27,7.25-4.41,7.25-4.41s1.14-4.26-1.79-6S249.28,95.38,245.82,94.41Z" fill="#ef986c"/><path d="M245.82,94.41s3.81,1.09,6,.57-1.47,5.87.06,6,1.79-3.47,2.83-2-2.3,5.37-2.3,5.37,4.38-1.7,5.69-5.22-3-7.39-7.43-7.45S245.82,94.41,245.82,94.41Z" fill="#2a343d"/><path d="M267.77,188.83s-5.28,5.39-11.73,2.79c0,0,3.18,8.29,2.8,11.21s-5.07,6.46-6.46,7.35-.89,2.41,0,3.93,8.89-1.27,10.78-2,4-4.93,4.61-4,0,2.53,0,2.53,4.63-.63,5.52-2.53S267.77,188.83,267.77,188.83Z" fill="#2a343d"/><polyline points="71.91 197.1 44.34 213.14 21.02 197.74 42.79 184.53" opacity="0.32" fill="url(#linear-gradient)"/><path d="M70,166.12c-.86-1.84-4.65-3.23-9.2-3.23s-8.53,1.46-9.25,3.37c-5.35,7.49-10.62,19.68-4,27.86A16.77,16.77,0,0,0,60.45,200h.79a16.77,16.77,0,0,0,12.92-5.85C80.79,185.89,75.41,173.59,70,166.12Z" fill="#bf3297"/><ellipse cx="60.83" cy="166.91" rx="9.39" ry="4.02" opacity="0.5"/><path d="M71.78,132.76a77.64,77.64,0,0,0-10.42,32.16A224.55,224.55,0,0,0,57.6,124c-.09-.48-.82-.28-.73.2A223.48,223.48,0,0,1,60.56,170a.36.36,0,0,0,.48.35c0,.11,0,.22,0,.34a.38.38,0,0,0,.76,0,76.84,76.84,0,0,1,10.65-37.52A.38.38,0,0,0,71.78,132.76Z" fill="#fe6162"/><path d="M65.85,145.26s5.81-18.67,18.27-25.58c0,0-2.53,3.71-1.35,6.74s3,8.42-2.86,11.45-9.26,0-8.76,5.9,2.84,8.76-.94,11.62-7,5.36-8.25,11.52C62,166.91,63.38,151.47,65.85,145.26Z" fill="#fe6162"/><path d="M60.32,143.29s-2.41-28.69-7.46-35.94a13.34,13.34,0,0,1-1.42,8.07c-2.19,4.15-4.53,5.59-3.27,11s6.39,4.33,5.9,9.74-4.76,4.39-2.63,11.21,9.41,11.31,9.41,11.31" fill="#fe6162"/><path d="M118,128.23v79.39A13.16,13.16,0,0,0,124.56,219l39.62,23.22a14,14,0,0,0,14.34-.09L222,216.75V123.5" fill="#ffd000"/><path d="M165.67,126V242.87a14,14,0,0,1-1.49-.74l-39.62-23.22a13.16,13.16,0,0,1-6.51-11.36V128.16Z" fill="#fff" opacity="0.17"/><path d="M222,127.31v7.87l-48.54,26.16a11.87,11.87,0,0,1-12.61,0C154,157.27,118,135.18,118,135.18v-7" opacity="0.36"/><path d="M226.4,124.88l-54.6,30.56a10.43,10.43,0,0,1-10.46-.16l-47.62-28.58a7.12,7.12,0,0,1,.15-12.29L161.6,87.34a13,13,0,0,1,13,.12l51.86,30.73A3.86,3.86,0,0,1,226.4,124.88Z" fill="#ffd000"/><polygon points="228.37 121.21 228.36 114.5 225.22 118.6 228.37 121.21" fill="#ffd000"/><polygon points="110.27 113.74 110.27 120.77 113.07 118.48 110.27 113.74" fill="#ffd000"/><g opacity="0.08"><path d="M226.4,124.88l-54.6,30.56a10.43,10.43,0,0,1-10.46-.16l-47.62-28.58a7.12,7.12,0,0,1,.15-12.29L161.6,87.34a13,13,0,0,1,13,.12l51.86,30.73A3.86,3.86,0,0,1,226.4,124.88Z"/><polygon points="228.37 121.21 228.36 114.5 225.22 118.6 228.37 121.21"/><polygon points="110.27 113.74 110.27 120.77 113.07 118.48 110.27 113.74"/></g><path d="M226.4,117.94l-54.6,30.56a10.43,10.43,0,0,1-10.46-.16l-47.62-28.58a7.12,7.12,0,0,1,.15-12.29L161.6,80.39a13,13,0,0,1,13,.12l51.86,30.73A3.86,3.86,0,0,1,226.4,117.94Z" fill="#ffd000"/><path d="M216.3,116.49l-44.95,25.15a8.58,8.58,0,0,1-8.61-.13L123.55,118a5.86,5.86,0,0,1,.13-10.12L163,85.59a10.68,10.68,0,0,1,10.71.1L216.37,111A3.17,3.17,0,0,1,216.3,116.49Z" opacity="0.37"/><path d="M226.48,111.25l14.36-59.63A7.66,7.66,0,0,0,237,43.07L193,19.55a4.88,4.88,0,0,0-7,3.14L172,79.33Z" fill="#ffd000"/><path d="M226.48,111.25l14.36-59.63A7.66,7.66,0,0,0,237,43.07L193,19.55a4.88,4.88,0,0,0-7,3.14L172,79.33Z" opacity="0.08"/><path d="M167.77,84.24a10.65,10.65,0,0,1,5.91,1.46L216.37,111a3.17,3.17,0,0,1-.07,5.5l-44.95,25.15a8.56,8.56,0,0,1-3.59,1.06Z" opacity="0.37"/><ellipse cx="219.68" cy="216.66" rx="12.78" ry="10.04" transform="translate(-64.76 336.21) rotate(-67.4)" fill="#af4e28"/><polyline points="229.6 206.83 223.63 204.52 223.32 208.02" fill="#af4e28"/><polygon points="219.78 230.42 214.77 228.45 218.59 227.88 219.78 230.42" fill="#915200"/><ellipse cx="224.42" cy="218.63" rx="12.78" ry="10.04" transform="translate(-63.66 341.8) rotate(-67.4)" fill="#c96336"/><ellipse cx="224.57" cy="218.26" rx="9.33" ry="7.33" transform="translate(-63.23 341.71) rotate(-67.4)" fill="#fff"/><path d="M148,132.34,144,114.17c-.61-2.85,3.8-3.8,4.42-1l3.92,18.17a2.17,2.17,0,0,1-2.09,2.66l12.46,7.48a8.58,8.58,0,0,0,8.61.13l.08,0v0q0-1.69,0-3.37c0-.47,0-.94,0-1.41-.19-1-.38-1.93-.58-2.89-1.55-7.65-3.15-15.3-5.11-22.86-.9-3.47-.7-3.65-2.25-6.87a29.9,29.9,0,0,0-1.93-3.67c-1.25-2.27-6.83-13.4-7.56-15.87-.67-2.28-1.33-4.57-1.94-6.87,0,0,2.5-2.35-.28-6.14.36,1.68-2.06,3.62-5.41,4.34s-6.36-.05-6.72-1.73c0,0-.83,4.5,2.91,6.06.5.21.34,2.32.35,2.71a104.84,104.84,0,0,1-1.14,15.6c-.65,4.93-1.68,9.91-.95,14.89.57,3.89,1.28,7.76,2,11.62.33,1.69.69,3.38,1,5.07l4.26,2.56A2.47,2.47,0,0,1,148,132.34Z" fill="#00ca9a"/><path d="M145,69.88c-3.35.72-5.77,2.67-5.41,4.34l12.13-2.62C151.37,69.93,148.36,69.16,145,69.88Z" fill="#67412e"/><path d="M146.32,75.95c3.35-.72,5.77-2.67,5.41-4.34L139.6,74.22C140,75.9,143,76.67,146.32,75.95Z" fill="#67412e"/><path d="M152.38,131.38l-3.92-18.17c-.61-2.84-5-1.89-4.42,1L148,132.34a2.47,2.47,0,0,0,.12.38l2.2,1.32A2.17,2.17,0,0,0,152.38,131.38Z" fill="#fefefe"/><path d="M187.41,132.66c.06-4.78.08-9.57-.11-14.35a15.69,15.69,0,0,0-.47-4.49,18.67,18.67,0,0,0-.7-2.5c-.46-1.55-2.41-9.08-2.53-10.68s-.21-3-.28-4.45c0,0,1.84-1.1.64-3.79,0,1.07-1.74,1.94-3.88,1.94s-3.88-.87-3.88-1.94c0,0-1.1,2.64,1,4.08.28.19-.1,1.46-.14,1.7a65.5,65.5,0,0,1-2.75,9.38c-1,2.92-2.33,5.83-2.54,9-.16,2.45-.24,4.91-.3,7.36-.1,4.3-.1,8.61-.07,12.91q.44,2.18.86,4.36Zm-12.16,1.66a1.41,1.41,0,0,1,0-2.82A1.41,1.41,0,0,1,175.25,134.33Zm-1.59-17a1.41,1.41,0,0,1,2.82,0V129a1.41,1.41,0,0,1-2.82,0Z" fill="#c7008b"/><path d="M171.43,141.58v0l.81-.45q-.42-2.18-.86-4.36c0,.47,0,.94,0,1.41Q171.41,139.89,171.43,141.58Z" fill="#c7008b"/><path d="M180.08,90.46c-2.14,0-3.88.87-3.88,1.94H184C184,91.32,182.23,90.46,180.08,90.46Z" fill="#67412e"/><path d="M180.08,94.33c2.14,0,3.88-.87,3.88-1.94h-7.75C176.21,93.47,177.94,94.33,180.08,94.33Z" fill="#67412e"/><path d="M176.48,129V117.37a1.41,1.41,0,0,0-2.82,0V129A1.41,1.41,0,0,0,176.48,129Z" fill="#fefefe"/><path d="M175.25,131.5a1.41,1.41,0,0,0,0,2.82A1.41,1.41,0,0,0,175.25,131.5Z" fill="#fefefe"/><path d="M150.28,134l-2.2-1.32A2.09,2.09,0,0,0,150.28,134Z" fill="#fff"/><path d="M257.63,107.27s5.57,7.22,2.6,13.31-31.13,18.91-31.13,18.91l-4.58-8.41,29.07-20.66" fill="#a6e700"/><path d="M225.43,132.76s-2.37.68-3.75,0-2.42-2.66-3.34-1.68,1.38,3.19,1.38,3.19,1.81-.17,1,2-3.32,6.92-2.64,8.19,2.68,1,4,0,4.12-5.08,4.12-5.65,1.36-1.95,1.36-1.95Z" fill="#ef986c"/><path d="M256.37,189l-5.43-12.58c-1.73-4-4.63-8.68-4.73-13.11-.09-4.13,1.69-8.56,2.83-12.49,1.31-4.52,2.72-9,4.13-13.51.22-.7-.83-1.2-1.05-.49-1.33,4.24-2.66,8.49-3.91,12.76s-3.26,9.19-3.19,13.7c.06,4.16,2.56,8.26,4.17,12l6.11,14.15C255.57,190.12,256.66,189.72,256.37,189Z" fill="#2a343d"/><path d="M276.48,164.54s-1.17,7.45-7.93,9.08c0,0,7.4,4.9,8.79,7.5s-.37,8.2-1,9.73.68,2.47,2.28,3.2,6.5-6.19,7.6-7.91.42-6.36,1.4-6,1.47,2.06,1.47,2.06,3.4-3.2,3-5.26S276.48,164.54,276.48,164.54Z" fill="#2a343d"/><path d="M341,182.26V150.34l28.58-16V166Z" fill="#b24f28"/><path d="M341,150.34l-27.81-16s-.77,32.19,0,32.7S341,182.26,341,182.26Z" fill="#c96336"/><polygon points="313.22 134.37 341.03 117.38 369.61 134.37 341.03 150.34 313.22 134.37" fill="#db7d58"/><polygon points="323.81 127.9 352.76 143.78 352.76 160.44 361.09 156.25 361.09 139.13 332.14 122.81 323.81 127.9" fill="#fdedcb"/><path d="M129.56,181.55a7,7,0,0,0,2.32,2.26c.29.16.57.3.86.43l.74.33,5.26,2.44.15.08.1,6.19-.42-.19-2.16-1-1.08-.5a6.24,6.24,0,0,1-2-1.36,3.81,3.81,0,0,1-.79-1.18l-3-7.38Z" fill="#fff"/><path d="M134.1,176.58a.43.43,0,0,1,.25.26q1.2,3,2.41,6c0,.06,0,.11.07.23l-1.42-1.51-.4.58c-.45.66-.91,1.32-1.35,2-.07.1-.14.13-.29.06a12.62,12.62,0,0,1-2-1.12,5.88,5.88,0,0,1-2-2.67,1.93,1.93,0,0,1,0-1.75c.42-.72.81-1.45,1.21-2.17l.07-.15-1.43-1.91.15.06Z" fill="#fff"/><path d="M136.35,169.84l.16.08a5.51,5.51,0,0,1,1.85,2,14.14,14.14,0,0,1,1.39,2.85V175l-2.31,3.35,0,0-4.7-5.26.1-.15c.74-1,1.46-2,2.21-2.95A1,1,0,0,1,136.35,169.84Z" fill="#fff"/><path d="M143,172.6a4.53,4.53,0,0,1,2.24,2.51c.4.94.77,1.9,1.17,2.88l1.48-.2,0,0-.16.23c-.76,1.1-1.51,2.21-2.26,3.33-.08.11-.16.12-.3.05l-4.52-2.1-.22-.11,1.34-.39-.12-.32c-.66-1.62-1.31-3.25-2-4.87a10.11,10.11,0,0,0-1.6-2.72c-.21-.25-.45-.47-.67-.69l-.2-.18V170l1.74.79.87.39Z" fill="#fff"/><g style="isolation:isolate"><path d="M142.94,187.08c0,.67.08,1.28.12,1.9l.17.09,1.61.74,2.42,1.08a3.85,3.85,0,0,0,2.24.4,5.68,5.68,0,0,0,.78-.26l0,.11c-.88,1.52-1.75,3.06-2.64,4.56-.46.77-1.21.91-2.18.49l-.69-.31-1.37-.63-.24-.11c0,.65,0,1.27,0,2l-.12-.28-2.3-5.67c0-.12-.09-.23,0-.32l2.22-3.68Z" fill="#fff"/><path d="M148.52,183.09c.27.7.53,1.38.79,2.06.42,1.08.83,2.16,1.24,3.24a2,2,0,0,1-.08,1.91,1.48,1.48,0,0,1-1.34.56,5.88,5.88,0,0,1-2.32-.59l-.4-.19a.51.51,0,0,1-.21-.23c-.74-1.82-1.47-3.65-2.21-5.48l0-.14Z" fill="#fff"/></g><path d="M262.45,151s-2.37,13-2.46,13.52A50.85,50.85,0,0,0,261.1,170l1.35.6s2.28-17.48,2.28-17.48Z" fill="#d34b00"/></svg>